<?xml version="1.0" encoding="UTF-8"?>
<svg width="100px" height="100px" viewBox="0 0 100 100" version="1.1" xmlns="http://www.w3.org/2000/svg" xmlns:xlink="http://www.w3.org/1999/xlink">
    <!-- Generator: Sketch 52.4 (67378) - http://www.bohemiancoding.com/sketch -->
    <title>mdpi/Combined Shape</title>
    <desc>Created with Sketch.</desc>
    <g id="英文" stroke="none" stroke-width="1" fill="none" fill-rule="evenodd" opacity="0.200000003">
        <g id="v" transform="translate(-733.000000, -408.000000)" fill="#FFFFFF" fill-rule="nonzero">
            <path d="M813,452 L831,452 L831,426 L813,426 L753,426 L735,426 L735,452 L753,452 L753,446 L761,446 L761,452 L805,452 L805,446 L813,446 L813,452 Z M813,454 L813,460 L805,460 L805,454 L761,454 L761,460 L753,460 L753,454 L735,454 L735,506 L831,506 L831,454 L813,454 Z M753,424 L753,408 L813,408 L813,424 L833,424 L833,508 L733,508 L733,424 L753,424 Z M755,410 L755,424 L811,424 L811,410 L755,410 Z M755,448 L755,458 L759,458 L759,448 L755,448 Z M807,448 L807,458 L811,458 L811,448 L807,448 Z" id="Combined-Shape"></path>
        </g>
    </g>
</svg>