<?xml version="1.0" encoding="UTF-8"?>
<svg width="167px" height="57px" viewBox="0 0 167 57" version="1.1" xmlns="http://www.w3.org/2000/svg" xmlns:xlink="http://www.w3.org/1999/xlink">
    <!-- Generator: Sketch 52.4 (67378) - http://www.bohemiancoding.com/sketch -->
    <title>mdpi/BACK</title>
    <desc>Created with Sketch.</desc>
    <g id="英文" stroke="none" stroke-width="1" fill="none" fill-rule="evenodd" opacity="0.300000012">
        <g id="v" transform="translate(-670.000000, -702.000000)" fill="#FFFFFF">
            <path d="M670.088,758.072 L670.088,702.56 L702.848,702.56 L706.592,706.376 L706.592,725.96 L702.848,729.704 L706.736,733.592 L706.736,754.328 L702.848,758.072 L670.088,758.072 Z M692.696,735.824 L684.128,735.824 L684.128,745.688 L692.696,745.688 L692.696,735.824 Z M692.48,714.8 L684.128,714.8 L684.128,723.728 L692.48,723.728 L692.48,714.8 Z M708.392,758.072 L719.48,702.56 L739.784,702.56 L750.872,758.072 L735.608,758.072 L734.456,748.928 L724.808,748.928 L723.656,758.072 L708.392,758.072 Z M729.704,713.144 L729.56,713.144 L726.32,736.328 L732.944,736.328 L729.704,713.144 Z M753.248,754.328 L753.248,706.376 L757.208,702.56 L785.36,702.56 L789.32,706.376 L789.32,721.928 L775.352,722.864 L775.352,714.872 L767.216,714.872 L767.216,745.688 L775.424,745.688 L775.424,734.816 L789.536,734.816 L789.536,754.328 L786.008,758.072 L757.208,758.072 L753.248,754.328 Z M793.64,758.072 L793.64,702.56 L807.824,702.56 L807.824,724.736 L807.896,724.736 L818.696,702.56 L834.608,702.56 L820.208,728.48 C820.16,728.48 820.543996,729.211993 821.36,730.676 C822.176004,732.140007 823.195994,733.963989 824.42,736.148 C825.644006,738.332011 826.987993,740.707987 828.452,743.276 C829.916007,745.844013 831.271994,748.219989 832.52,750.404 C833.768006,752.588011 834.799996,754.411993 835.616,755.876 L836.84,758.072 L820.424,758.072 L807.752,735.176 L807.68,735.176 L807.68,758.072 L793.64,758.072 Z" id="BACK"></path>
        </g>
    </g>
</svg>