<?xml version="1.0" encoding="UTF-8"?>
<svg width="100px" height="100px" viewBox="0 0 100 100" version="1.1" xmlns="http://www.w3.org/2000/svg" xmlns:xlink="http://www.w3.org/1999/xlink">
    <!-- Generator: Sketch 52.4 (67378) - http://www.bohemiancoding.com/sketch -->
    <title>mdpi/Combined Shape</title>
    <desc>Created with Sketch.</desc>
    <g id="英文" stroke="none" stroke-width="1" fill="none" fill-rule="evenodd" opacity="0.200000003">
        <g id="v" transform="translate(-391.000000, -408.000000)" fill="#FFFFFF" fill-rule="nonzero">
            <path d="M446,506 L446,434 L446,410 L400,410 L400,506 L410,506 L410,482 L436,482 L436,506 L446,506 Z M398,506 L398,408 L448,408 L448,434 L484,434 L484,506 L491,506 L491,508 L391,508 L391,506 L398,506 Z M434,506 L434,484 L412,484 L412,506 L434,506 Z M482,506 L482,436 L448,436 L448,506 L482,506 Z M403,418 L420,418 L420,424 L403,424 L403,418 Z M405,420 L405,422 L418,422 L418,420 L405,420 Z M403,434 L420,434 L420,440 L403,440 L403,434 Z M405,436 L405,438 L418,438 L418,436 L405,436 Z M426,418 L443,418 L443,424 L426,424 L426,418 Z M428,420 L428,422 L441,422 L441,420 L428,420 Z M426,434 L443,434 L443,440 L426,440 L426,434 Z M428,436 L428,438 L441,438 L441,436 L428,436 Z M403,450 L420,450 L420,456 L403,456 L403,450 Z M405,452 L405,454 L418,454 L418,452 L405,452 Z M426,450 L443,450 L443,456 L426,456 L426,450 Z M428,452 L428,454 L441,454 L441,452 L428,452 Z M403,466 L420,466 L420,472 L403,472 L403,466 Z M405,468 L405,470 L418,470 L418,468 L405,468 Z M426,466 L443,466 L443,472 L426,472 L426,466 Z M428,468 L428,470 L441,470 L441,468 L428,468 Z M457,444 L474,444 L474,450 L457,450 L457,444 Z M459,446 L459,448 L472,448 L472,446 L459,446 Z M457,460 L474,460 L474,466 L457,466 L457,460 Z M459,462 L459,464 L472,464 L472,462 L459,462 Z M457,476 L474,476 L474,482 L457,482 L457,476 Z M459,478 L459,480 L472,480 L472,478 L459,478 Z" id="Combined-Shape"></path>
        </g>
    </g>
</svg>