<?xml version="1.0" encoding="UTF-8"?>
<svg width="274px" height="57px" viewBox="0 0 274 57" version="1.1" xmlns="http://www.w3.org/2000/svg" xmlns:xlink="http://www.w3.org/1999/xlink">
    <!-- Generator: Sketch 52.4 (67378) - http://www.bohemiancoding.com/sketch -->
    <title>mdpi/CONTACT</title>
    <desc>Created with Sketch.</desc>
    <g id="英文" stroke="none" stroke-width="1" fill="none" fill-rule="evenodd" opacity="0.300000012">
        <g id="v" transform="translate(-282.000000, -697.000000)" fill="#FFFFFF">
            <path d="M282.088,749.328 L282.088,701.376 L286.048,697.56 L314.2,697.56 L318.16,701.376 L318.16,716.928 L304.192,717.864 L304.192,709.872 L296.056,709.872 L296.056,740.688 L304.264,740.688 L304.264,729.816 L318.376,729.816 L318.376,749.328 L314.848,753.072 L286.048,753.072 L282.088,749.328 Z M344.584,709.8 L336.448,709.8 L336.448,740.688 L344.584,740.688 L344.584,709.8 Z M322.48,749.328 L322.48,701.376 L326.44,697.56 L355.24,697.56 L358.696,701.376 L358.696,749.328 L355.24,753.072 L326.44,753.072 L322.48,749.328 Z M362.872,753.072 L362.872,697.56 L379.36,697.56 L393.544,730.032 L393.616,730.032 L393.616,697.56 L406.072,697.56 L406.072,753.072 L389.584,753.072 L375.4,720.456 L375.328,720.456 L375.328,753.072 L362.872,753.072 Z M407.944,697.56 L440.632,697.56 L440.632,711.096 L431.2,711.096 L431.2,753.072 L417.232,753.072 L417.232,711.096 L407.944,711.096 L407.944,697.56 Z M440.056,753.072 L451.144,697.56 L471.448,697.56 L482.536,753.072 L467.272,753.072 L466.12,743.928 L456.472,743.928 L455.32,753.072 L440.056,753.072 Z M461.368,708.144 L461.224,708.144 L457.984,731.328 L464.608,731.328 L461.368,708.144 Z M484.912,749.328 L484.912,701.376 L488.872,697.56 L517.024,697.56 L520.984,701.376 L520.984,716.928 L507.016,717.864 L507.016,709.872 L498.88,709.872 L498.88,740.688 L507.088,740.688 L507.088,729.816 L521.2,729.816 L521.2,749.328 L517.672,753.072 L488.872,753.072 L484.912,749.328 Z M523,697.56 L555.688,697.56 L555.688,711.096 L546.256,711.096 L546.256,753.072 L532.288,753.072 L532.288,711.096 L523,711.096 L523,697.56 Z" id="CONTACT"></path>
        </g>
    </g>
</svg>