<?xml version="1.0" encoding="UTF-8"?>
<svg width="313px" height="57px" viewBox="0 0 313 57" version="1.1" xmlns="http://www.w3.org/2000/svg" xmlns:xlink="http://www.w3.org/1999/xlink">
    <!-- Generator: Sketch 52.4 (67378) - http://www.bohemiancoding.com/sketch -->
    <title>mdpi/PORTFOLIO</title>
    <desc>Created with Sketch.</desc>
    <g id="英文" stroke="none" stroke-width="1" fill="none" fill-rule="evenodd" opacity="0.300000012">
        <g id="v" transform="translate(-353.000000, -792.000000)" fill="#FFFFFF">
            <path d="M375.336,804.872 L367.128,804.872 L367.128,818.192 L375.336,818.192 L375.336,804.872 Z M353.088,848.072 L353.088,792.56 L385.848,792.56 L389.592,796.376 L389.592,826.904 L385.92,830.576 L367.128,830.576 L367.128,848.072 L353.088,848.072 Z M415.512,804.8 L407.376,804.8 L407.376,835.688 L415.512,835.688 L415.512,804.8 Z M393.408,844.328 L393.408,796.376 L397.368,792.56 L426.168,792.56 L429.624,796.376 L429.624,844.328 L426.168,848.072 L397.368,848.072 L393.408,844.328 Z M456.408,804.224 L447.84,804.224 L447.84,814.88 L456.408,814.88 L456.408,804.224 Z M433.8,848.072 L433.8,792.56 L466.776,792.56 L470.52,796.376 L470.52,816.968 L466.56,820.784 L470.448,824.816 L470.448,848.072 L456.408,848.072 L456.408,826.76 L447.84,826.76 L447.84,848.072 L433.8,848.072 Z M472.392,792.56 L505.08,792.56 L505.08,806.096 L495.648,806.096 L495.648,848.072 L481.68,848.072 L481.68,806.096 L472.392,806.096 L472.392,792.56 Z M506.88,848.072 L506.88,792.56 L538.416,792.56 L538.416,805.808 L520.848,805.808 L520.848,813.08 L537.048,813.08 L537.048,826.328 L520.848,826.328 L520.848,848.072 L506.88,848.072 Z M562.608,804.8 L554.472,804.8 L554.472,835.688 L562.608,835.688 L562.608,804.8 Z M540.504,844.328 L540.504,796.376 L544.464,792.56 L573.264,792.56 L576.72,796.376 L576.72,844.328 L573.264,848.072 L544.464,848.072 L540.504,844.328 Z M580.896,848.072 L580.896,792.56 L594.936,792.56 L594.936,834.176 L609.048,834.176 L609.048,848.072 L580.896,848.072 Z M611.208,848.072 L611.208,792.56 L625.248,792.56 L625.248,848.072 L611.208,848.072 Z M651.528,804.8 L643.392,804.8 L643.392,835.688 L651.528,835.688 L651.528,804.8 Z M629.424,844.328 L629.424,796.376 L633.384,792.56 L662.184,792.56 L665.64,796.376 L665.64,844.328 L662.184,848.072 L633.384,848.072 L629.424,844.328 Z" id="PORTFOLIO"></path>
        </g>
    </g>
</svg>