<?xml version="1.0" encoding="UTF-8"?>
<svg width="100px" height="100px" viewBox="0 0 100 100" version="1.1" xmlns="http://www.w3.org/2000/svg" xmlns:xlink="http://www.w3.org/1999/xlink">
    <!-- Generator: Sketch 52.4 (67378) - http://www.bohemiancoding.com/sketch -->
    <title>mdpi/Combined Shape</title>
    <desc>Created with Sketch.</desc>
    <g id="英文" stroke="none" stroke-width="1" fill="none" fill-rule="evenodd" opacity="0.200000003">
        <g id="v" transform="translate(-1075.000000, -408.000000)" fill="#FFFFFF" fill-rule="nonzero">
            <path d="M1078.41421,497.414214 L1077.82843,498 L1085,505.171573 L1172.17157,418 L1165,410.828427 L1163.41421,412.414214 L1165,414 L1164,415 L1162.41421,413.414214 L1161.41421,414.414214 L1163,416 L1162,417 L1160.41421,415.414214 L1159.41421,416.414214 L1161,418 L1160,419 L1158.41421,417.414214 L1157.41421,418.414214 L1159,420 L1158,421 L1156.41421,419.414214 L1155.41421,420.414214 L1159,424 L1158,425 L1154.41421,421.414214 L1153.41421,422.414214 L1155,424 L1154,425 L1152.41421,423.414214 L1151.41421,424.414214 L1153,426 L1152,427 L1150.41421,425.414214 L1149.41421,426.414214 L1151,428 L1150,429 L1148.41421,427.414214 L1147.41421,428.414214 L1149,430 L1148,431 L1146.41421,429.414214 L1145.41421,430.414214 L1149,434 L1148,435 L1144.41421,431.414214 L1143.41421,432.414214 L1145,434 L1144,435 L1142.41421,433.414214 L1141.41421,434.414214 L1143,436 L1142,437 L1140.41421,435.414214 L1139.41421,436.414214 L1141,438 L1140,439 L1138.41421,437.414214 L1137.41421,438.414214 L1139,440 L1138,441 L1136.41421,439.414214 L1135.41421,440.414214 L1139,444 L1138,445 L1134.41421,441.414214 L1133.41421,442.414214 L1135,444 L1134,445 L1132.41421,443.414214 L1131.41421,444.414214 L1133,446 L1132,447 L1130.41421,445.414214 L1129.41421,446.414214 L1131,448 L1130,449 L1128.41421,447.414214 L1127.41421,448.414214 L1129,450 L1128,451 L1126.41421,449.414214 L1125.41421,450.414214 L1129,454 L1128,455 L1124.41421,451.414214 L1123.41421,452.414214 L1125,454 L1124,455 L1122.41421,453.414214 L1121.41421,454.414214 L1123,456 L1122,457 L1120.41421,455.414214 L1119.41421,456.414214 L1121,458 L1120,459 L1118.41421,457.414214 L1117.41421,458.414214 L1119,460 L1118,461 L1116.41421,459.414214 L1115.41421,460.414214 L1119,464 L1118,465 L1114.41421,461.414214 L1113.41421,462.414214 L1115,464 L1114,465 L1112.41421,463.414214 L1111.41421,464.414214 L1113,466 L1112,467 L1110.41421,465.414214 L1109.41421,466.414214 L1111,468 L1110,469 L1108.41421,467.414214 L1107.41421,468.414214 L1109,470 L1108,471 L1106.41421,469.414214 L1105.41421,470.414214 L1109,474 L1108,475 L1104.41421,471.414214 L1103.41421,472.414214 L1105,474 L1104,475 L1102.41421,473.414214 L1101.41421,474.414214 L1103,476 L1102,477 L1100.41421,475.414214 L1099.41421,476.414214 L1101,478 L1100,479 L1098.41421,477.414214 L1097.41421,478.414214 L1099,480 L1098,481 L1096.41421,479.414214 L1095.41421,480.414214 L1099,484 L1098,485 L1094.41421,481.414214 L1093.41421,482.414214 L1095,484 L1094,485 L1092.41421,483.414214 L1091.41421,484.414214 L1093,486 L1092,487 L1090.41421,485.414214 L1089.41421,486.414214 L1091,488 L1090,489 L1088.41421,487.414214 L1087.41421,488.414214 L1089,490 L1088,491 L1086.41421,489.414214 L1085.41421,490.414214 L1089,494 L1088,495 L1084.41421,491.414214 L1083.41421,492.414214 L1085,494 L1084,495 L1082.41421,493.414214 L1081.41421,494.414214 L1083,496 L1082,497 L1080.41421,495.414214 L1079.41421,496.414214 L1081,498 L1080,499 L1078.41421,497.414214 Z M1143,410 L1141,410 L1141,413 L1139,413 L1139,410 L1137,410 L1137,413 L1135,413 L1135,410 L1133,410 L1133,413 L1131,413 L1131,410 L1129,410 L1129,413 L1127,413 L1127,410 L1125,410 L1125,413 L1123,413 L1123,410 L1121,410 L1121,413 L1119,413 L1119,410 L1117,410 L1117,413 L1115,413 L1115,410 L1113,410 L1113,413 L1111,413 L1111,410 L1109,410 L1109,413 L1107,413 L1107,410 L1105,410 L1105,413 L1103,413 L1103,410 L1101,410 L1101,413 L1099,413 L1099,410 L1097,410 L1097,413 L1095,413 L1095,410 L1093,410 L1093,413 L1091,413 L1091,410 L1089,410 L1089,413 L1087,413 L1087,410 L1085,410 L1085,413 L1083,413 L1083,410 L1081,410 L1081,413 L1079,413 L1079,410 L1077,410 L1077,483.171573 L1150.17157,410 L1145,410 L1145,413 L1143,413 L1143,410 Z M1075,498 L1165,408 L1175,418 L1085,508 L1075,498 Z M1075,408 L1155,408 L1075,488 L1075,408 Z M1087,420 L1127,420 L1087,460 L1087,420 Z M1089,422 L1089,455.171573 L1122.17157,422 L1089,422 Z M1107,496.333044 L1163.33304,440 C1170.54149,447.208442 1175,457.166811 1175,468.166522 C1175,490.165945 1157.16594,508 1135.16652,508 C1124.16681,508 1114.20844,503.541486 1107,496.333044 Z M1163.37701,442.94355 L1109.94355,496.377006 C1116.63789,502.366522 1125.47691,506.008326 1135.16652,506.008326 C1156.06597,506.008326 1173.00833,489.065973 1173.00833,468.166522 C1173.00833,458.476912 1169.36652,449.637891 1163.37701,442.94355 Z M1126.85786,488.142136 L1155.14214,459.857864 C1158.76142,463.477153 1161,468.477153 1161,474 C1161,485.045695 1152.04569,494 1141,494 C1135.47715,494 1130.47715,491.761424 1126.85786,488.142136 Z M1155.13976,462.860244 L1129.86024,488.139756 C1132.92464,490.557304 1136.79384,492 1141,492 C1150.94113,492 1159,483.941125 1159,474 C1159,469.79384 1157.5573,465.924639 1155.13976,462.860244 Z" id="Combined-Shape"></path>
        </g>
    </g>
</svg>